<svg width="20" height="19" viewBox="0 0 20 19" fill="none" xmlns="http://www.w3.org/2000/svg">
<path d="M19.1867 4.24922L15.3757 0.438281C15.1999 0.2625 14.9843 0.133594 14.7499 0.0632812V0H1.62494C1.2101 0 0.874939 0.335156 0.874939 0.75V18C0.874939 18.4148 1.2101 18.75 1.62494 18.75H18.8749C19.2898 18.75 19.6249 18.4148 19.6249 18V5.30859C19.6249 4.91016 19.4679 4.53047 19.1867 4.24922ZM7.24994 1.6875H13.2499V4.125H7.24994V1.6875ZM17.9374 17.0625H2.56244V1.6875H5.74994V4.875C5.74994 5.28984 6.0851 5.625 6.49994 5.625H13.9999C14.4148 5.625 14.7499 5.28984 14.7499 4.875V2.19844L17.9374 5.38594V17.0625ZM10.2499 7.73438C8.38666 7.73438 6.87494 9.24609 6.87494 11.1094C6.87494 12.9727 8.38666 14.4844 10.2499 14.4844C12.1132 14.4844 13.6249 12.9727 13.6249 11.1094C13.6249 9.24609 12.1132 7.73438 10.2499 7.73438ZM10.2499 12.9844C9.214 12.9844 8.37494 12.1453 8.37494 11.1094C8.37494 10.0734 9.214 9.23438 10.2499 9.23438C11.2859 9.23438 12.1249 10.0734 12.1249 11.1094C12.1249 12.1453 11.2859 12.9844 10.2499 12.9844Z" fill="#8C8C8C"/>
</svg>
