<svg width="18" height="19" viewBox="0 0 18 19" fill="none" xmlns="http://www.w3.org/2000/svg">
<path d="M14.6874 12.75C14.0195 12.75 13.4031 12.9844 12.9203 13.3758L8.064 9.8625C8.14532 9.41617 8.14532 8.95883 8.064 8.5125L12.9203 4.99922C13.4031 5.39062 14.0195 5.625 14.6874 5.625C16.239 5.625 17.4999 4.36406 17.4999 2.8125C17.4999 1.26094 16.239 0 14.6874 0C13.1359 0 11.8749 1.26094 11.8749 2.8125C11.8749 3.08437 11.9124 3.34453 11.9851 3.59297L7.37259 6.93281C6.68822 6.02578 5.60072 5.4375 4.37494 5.4375C2.30306 5.4375 0.624939 7.11562 0.624939 9.1875C0.624939 11.2594 2.30306 12.9375 4.37494 12.9375C5.60072 12.9375 6.68822 12.3492 7.37259 11.4422L11.9851 14.782C11.9124 15.0305 11.8749 15.293 11.8749 15.5625C11.8749 17.1141 13.1359 18.375 14.6874 18.375C16.239 18.375 17.4999 17.1141 17.4999 15.5625C17.4999 14.0109 16.239 12.75 14.6874 12.75ZM14.6874 1.59375C15.3601 1.59375 15.9062 2.13984 15.9062 2.8125C15.9062 3.48516 15.3601 4.03125 14.6874 4.03125C14.0148 4.03125 13.4687 3.48516 13.4687 2.8125C13.4687 2.13984 14.0148 1.59375 14.6874 1.59375ZM4.37494 11.25C3.23822 11.25 2.31244 10.3242 2.31244 9.1875C2.31244 8.05078 3.23822 7.125 4.37494 7.125C5.51166 7.125 6.43744 8.05078 6.43744 9.1875C6.43744 10.3242 5.51166 11.25 4.37494 11.25ZM14.6874 16.7812C14.0148 16.7812 13.4687 16.2352 13.4687 15.5625C13.4687 14.8898 14.0148 14.3438 14.6874 14.3438C15.3601 14.3438 15.9062 14.8898 15.9062 15.5625C15.9062 16.2352 15.3601 16.7812 14.6874 16.7812Z" fill="#8C8C8C"/>
</svg>
